<svg id="Layer_2" data-name="Layer 2" xmlns="http://www.w3.org/2000/svg" width="1361" height="973" viewBox="0 0 1361 973">
  <title>mitoverlay-04</title>
  <polygon points="603.47 399.22 579.32 578.02 759.61 604.92 786.98 429.28 603.47 399.22" fill="#d84848"/>
  <polygon points="895.63 512.36 769.67 490.2 763.03 502.07 895.63 524.22 895.63 512.36" fill="#d84848"/>
  <polygon points="895.63 451.44 872.29 615.21 1034.88 636.57 1055 475.96 895.63 451.44" fill="#d84848"/>
  <polygon points="901.67 457.37 904.69 435.41 938.5 439.57 934.87 463.3 901.67 457.37" fill="#d84848"/>
  <polygon points="1016.37 451.44 1012.74 475.76 1046.55 481.7 1050.17 457.37 1016.37 451.44" fill="#d84848"/>
  <polygon points="993.13 625.89 988.14 643.69 1021.2 652 1021.2 628.26 993.13 625.89" fill="#d84848"/>
  <polygon points="910.73 613.43 908.31 636.57 875.11 629.45 880.54 607.5 910.73 613.43" fill="#d84848"/>
  <polygon points="777.32 449.66 803.88 452.92 800.26 479.92 770.98 475.76 777.32 449.66" fill="#d84848"/>
  <polygon points="727.22 629.45 700.65 625.89 706.69 585.54 733.86 591.48 727.22 629.45" fill="#d84848"/>
  <polygon points="625.83 382.72 651.76 387.05 648.14 415.24 621.17 410.09 625.83 382.72" fill="#d84848"/>
  <polygon points="553.57 527.78 548.33 555.87 590.59 562.99 595.82 532.93 553.57 527.78" fill="#d84848"/>
  <polygon points="723.39 143.67 696.83 343.84 770.98 354.55 813.74 360.72 866.66 368.36 963.65 181.64 867.37 166.43 811.06 157.53 723.39 143.67" fill="#684f4f"/>
  <rect x="265.53" y="42.84" width="56" height="292.61" transform="translate(28.25 -37.93) rotate(7.77)" fill="#ffec00"/>
  <rect x="231.75" y="330.19" width="56" height="215.37" transform="translate(61.56 -31.09) rotate(7.77)" fill="#0009aa"/>
  <rect x="518" y="351" width="75" height="48" transform="translate(55.77 -71.63) rotate(7.77)" fill="red"/>
</svg>
